<?xml version="1.0" encoding="UTF-8" standalone="no"?>
<!-- Created with Inkscape (http://www.inkscape.org/) -->

<svg
xmlns:dc="http://purl.org/dc/elements/1.1/"
xmlns:cc="http://creativecommons.org/ns#"
xmlns:rdf="http://www.w3.org/1999/02/22-rdf-syntax-ns#"
xmlns:svg="http://www.w3.org/2000/svg"
xmlns="http://www.w3.org/2000/svg"
xmlns:sodipodi="http://sodipodi.sourceforge.net/DTD/sodipodi-0.dtd"
xmlns:inkscape="http://www.inkscape.org/namespaces/inkscape"
version="1.1"
id="svg2"
xml:space="preserve"
width="44.427067"
height="50.151733"
viewBox="0 0 44.427067 50.151733"
sodipodi:docname="logo-block__img--fox.svg"
inkscape:version="0.92.2 (5c3e80d, 2017-08-06)"><metadata
id="metadata8"><rdf:RDF><cc:Work
rdf:about=""><dc:format>image/svg+xml</dc:format><dc:type
rdf:resource="http://purl.org/dc/dcmitype/StillImage" /><dc:title></dc:title></cc:Work></rdf:RDF></metadata><defs
id="defs6"><clipPath
clipPathUnits="userSpaceOnUse"
id="clipPath18"><path
d="M 0,37.614 H 33.32 V 0 H 0 Z"
id="path16"
inkscape:connector-curvature="0" /></clipPath></defs><sodipodi:namedview
pagecolor="#ffffff"
bordercolor="#666666"
borderopacity="1"
objecttolerance="10"
gridtolerance="10"
guidetolerance="10"
inkscape:pageopacity="0"
inkscape:pageshadow="2"
inkscape:window-width="751"
inkscape:window-height="480"
id="namedview4"
showgrid="false"
inkscape:zoom="4.7057197"
inkscape:cx="22.213533"
inkscape:cy="25.075867"
inkscape:window-x="0"
inkscape:window-y="0"
inkscape:window-maximized="0"
inkscape:current-layer="g10" /><g
id="g10"
inkscape:groupmode="layer"
inkscape:label="Vector Smart Object"
transform="matrix(1.3333333,0,0,-1.3333333,0,50.151733)"><g
id="g12"><g
id="g14"
clip-path="url(#clipPath18)"><g
id="g20"
transform="translate(6.0705,16.8901)"><path
d="M 0,0 0.053,2.266 C 6.72,3.175 13.49,3.635 20.218,3.597 20.208,2.991 20.189,2.384 20.16,1.776 c 0,0 2.923,1.349 6.036,1.814 C 23.829,9.913 17.732,14.415 10.583,14.415 2.26,14.415 -4.638,8.313 -5.883,0.339 -3.711,0.203 0,0 0,0"
style="fill:#fdc305;fill-opacity:1;fill-rule:nonzero;stroke:none"
id="path22"
inkscape:connector-curvature="0" /></g><g
id="g24"
transform="translate(27.2385,13.3862)"><path
d="m 0,0 c -1.16,-1.284 -1.392,-1.2 -1.392,-3.456 0,-0.908 0.028,-4.898 0.036,-9.172 4.483,2.987 7.438,8.088 7.438,13.879 0,1.052 -0.099,2.081 -0.285,3.079 C 3.983,3.266 0.985,1.091 0,0"
style="fill:#fdc305;fill-opacity:1;fill-rule:nonzero;stroke:none"
id="path26"
inkscape:connector-curvature="0" /></g><g
id="g28"
transform="translate(6.3586,11.8984)"><path
d="M 0,0 C 0,0 -3.792,1.44 -5.184,1.824 -5.611,1.942 -5.989,2.05 -6.358,2.107 -6.133,-3.941 -2.685,-9.166 2.319,-11.898 Z"
style="fill:#fdc305;fill-opacity:1;fill-rule:nonzero;stroke:none"
id="path30"
inkscape:connector-curvature="0" /></g><g
id="g32"
transform="translate(26.2946,20.4922)"><path
d="m 0,0 c 0.145,8.48 -1.402,16.467 -1.402,16.467 0,0 -0.144,1.296 -0.864,0.241 -0.72,-1.057 -1.2,-3.937 -1.2,-3.937 -7.44,0.433 -12.768,-0.335 -12.768,-0.335 -0.816,2.735 -2.208,3.936 -2.88,3.647 -0.672,-0.288 -0.72,-3.312 -0.72,-3.312 L -20.165,-1.331 C -13.499,-0.422 -6.728,0.038 0,0"
style="fill:#f06351;fill-opacity:1;fill-rule:nonzero;stroke:none"
id="path34"
inkscape:connector-curvature="0" /></g><g
id="g36"
transform="translate(12.4128,23.6157)"><path
d="m 0,0 c -0.046,0.091 1.022,-0.681 1.406,-0.921 0.384,-0.24 0.61,-0.423 0.61,-0.591 0,-0.168 -0.264,-0.336 -0.624,-0.336 -0.36,0 -0.912,0.12 -0.96,0.264 0,0 0.6,0.024 0.936,0.024 h 0.288 c 0,0 -1.392,1.032 -1.656,1.56"
style="fill:#000000;fill-opacity:1;fill-rule:nonzero;stroke:none"
id="path38"
inkscape:connector-curvature="0" /></g><g
id="g40"
transform="translate(19.8855,23.5024)"><path
d="m 0,0 c 0,0 -1.047,-1.274 -1.086,-1.333 -0.039,-0.059 -0.165,-0.341 0.185,-0.292 0.351,0.048 1.111,0.224 1.219,0.282 0.107,0.059 0.069,0.196 -0.117,0.176 -0.205,-0.022 -0.682,-0.049 -0.985,-0.107 l 0.841,1.26 c 0,0 0.026,0.119 -0.057,0.014"
style="fill:#000000;fill-opacity:1;fill-rule:nonzero;stroke:none"
id="path42"
inkscape:connector-curvature="0" /></g><g
id="g44"
transform="translate(16.7536,17.4116)"><path
d="M 0,0 C 0,0 0.81,0.351 1.089,1.008 1.368,1.665 1.125,1.92 0.648,1.986 0.171,2.052 -0.693,2.016 -1.089,1.647 -1.485,1.278 -1.431,0.918 -1.143,0.693 -0.855,0.468 -0.297,0.09 0,0"
style="fill:#000000;fill-opacity:1;fill-rule:nonzero;stroke:none"
id="path46"
inkscape:connector-curvature="0" /></g><g
id="g48"
transform="translate(16.3488,16.1606)"><path
d="m 0,0 c 0,0 -0.18,-0.372 -0.458,-0.594 -0.244,-0.194 -0.567,-0.364 -1.018,-0.387 -0.638,-0.033 -1.056,0.169 -1.452,0.445 -0.202,0.142 -0.395,0.255 -0.532,0.442 -0.157,0.182 -0.356,0.253 -0.356,0.253 0,0 0.747,-4.099 2.566,-4.747 1.817,-0.648 2.143,0.75 2.2,1.133 0.048,0.326 0,2.082 -0.82,3.224 C 0.115,0.072 0.099,-0.131 0,0"
style="fill:#f06351;fill-opacity:1;fill-rule:nonzero;stroke:none"
id="path50"
inkscape:connector-curvature="0" /></g><g
id="g52"
transform="translate(14.7077,15.0273)"><path
d="m 0,0 h -0.016 c -1.293,0.011 -2.291,1.361 -2.333,1.418 -0.047,0.065 -0.032,0.155 0.032,0.202 0.064,0.047 0.154,0.032 0.201,-0.032 0.01,-0.013 0.956,-1.291 2.104,-1.3 H 0 c 0.584,0 1.132,0.333 1.627,0.99 L 1.77,1.467 1.872,1.254 C 1.876,1.247 2.245,0.498 2.861,0.459 3.357,0.429 3.913,0.871 4.477,1.738 4.52,1.804 4.609,1.823 4.676,1.78 4.742,1.737 4.761,1.647 4.718,1.581 4.085,0.607 3.453,0.133 2.841,0.172 2.278,0.208 1.899,0.667 1.724,0.937 1.205,0.315 0.625,0 0,0"
style="fill:#000000;fill-opacity:1;fill-rule:nonzero;stroke:none"
id="path54"
inkscape:connector-curvature="0" /></g><g
id="g56"
transform="translate(26.2365,18.6899)"><path
d="m 0,0 c 0,0 -2.544,-2.245 -5.064,-5.191 -2.52,-2.947 -5.292,-4.876 -5.292,-4.876 -0.216,0.526 -1.62,1.508 -1.62,1.508 0,0 -3.132,2.14 -5.184,3.824 -1.179,0.967 -2.346,2.166 -3.126,3.011 -0.292,0.016 -1.065,0.057 -2.006,0.109 4.692,-6.969 11.972,-8.802 11.972,-8.802 0.864,0.14 3.276,1.858 5.076,3.262 1.8,1.403 4.752,4.525 5.94,5.892 C 1.297,-0.57 1.64,0.157 1.832,0.708 0.723,0.325 0,0 0,0"
style="fill:#f06351;fill-opacity:1;fill-rule:nonzero;stroke:none"
id="path58"
inkscape:connector-curvature="0" />
</g></g></g></g>
</svg>
